/* XPM */
static char *player[] = {
/* columns rows colors chars-per-pixel */
"25 40 14 1 ",
"  c #222034",
". c #3E3C4E",
"X c #595867",
"o c #5A5867",
"O c #6C6A78",
"+ c #757480",
"@ c #757481",
"# c #91909A",
"$ c #ACACB3",
"% c #C8C7CC",
"& c #C8C8CD",
"* c #E4E3E6",
"= c white",
"- c None",
/* pixels */
"---         -------------",
"---         -------------",
"-----        ------------",
"-----                 ---",
"-----                 ---",
"-----                    ",
"-----                    ",
"-----     XX+####X     --",
"---       ##%====#    ---",
"---       ##%====#    ---",
"          ==#  ==#  ---  ",
"          ==#  ==#  ---  ",
"--        ==#  ==#  --   ",
"---       ==#  ==#       ",
"---       ==#  ==#       ",
"--------  ============#  ",
"--------  ============#  ",
"----------#####==%####O--",
"----------     ==#    ---",
"----------     ==#    ---",
"----------  #====#  -----",
"----------  #====#  -----",
"----------XX$====%##-----",
"--------  ##&=======  ---",
"--------  ##&=======  ---",
"-----  o##==========  ---",
"-----  o##==========  ---",
"-----oo@##&&*=======##O--",
"---  #######&=========#  ",
"---  #######&=========#  ",
"-----       X####%====#  ",
"-----       X####%====#  ",
"----------  .oooo@####o  ",
"----------               ",
"----------               ",
"----------  ------  -----",
"----------  ------  -----",
"----------  ------  -----",
"----------  ------  -----",
"----------  ------  -----"
};
