/* XPM */
static char *bloc[] = {
/* columns rows colors chars-per-pixel */
"50 50 195 2 ",
"   c #0E111D",
".  c #11131F",
"X  c #0F1220",
"o  c #121521",
"O  c #151926",
"+  c #181B27",
"@  c #161D2B",
"#  c #191E2C",
"$  c #161F32",
"%  c #1A1F30",
"&  c #1A212E",
"*  c #172136",
"=  c #1C2433",
"-  c #1F2836",
";  c #1A253A",
":  c #1D293C",
">  c #212635",
",  c #212936",
"<  c #232C3B",
"1  c #252A3C",
"2  c #26303E",
"3  c #2A313E",
"4  c #1C2B42",
"5  c #1E3047",
"6  c #1E324B",
"7  c #1C394B",
"8  c #1F3752",
"9  c #232E42",
"0  c #282E41",
"q  c #243144",
"w  c #2A3344",
"e  c #2E3846",
"r  c #23354B",
"t  c #2B364A",
"y  c #25394D",
"u  c #2E3A4B",
"i  c #353B4A",
"p  c #323C4D",
"a  c #213751",
"s  c #223A54",
"d  c #2E3C51",
"f  c #223E5B",
"g  c #283F5A",
"h  c #323E52",
"j  c #383F53",
"k  c #35414E",
"l  c #384048",
"z  c #274155",
"x  c #2D4154",
"c  c #24415E",
"v  c #354254",
"b  c #394454",
"n  c #3C4955",
"m  c #35445A",
"M  c #3A4659",
"N  c #364859",
"B  c #3D4B5B",
"V  c #3F505F",
"C  c #254464",
"Z  c #274665",
"A  c #2B4C64",
"S  c #264868",
"D  c #2C4C6C",
"F  c #354C63",
"G  c #3C4B61",
"H  c #374E68",
"J  c #2C5269",
"K  c #3D5263",
"L  c #34536C",
"P  c #274C72",
"I  c #294E72",
"U  c #2C5272",
"Y  c #2A547C",
"T  c #375B76",
"R  c #38657D",
"E  c #414B56",
"W  c #414D5B",
"Q  c #44515E",
"!  c #4A545E",
"~  c #424E62",
"^  c #445463",
"/  c #495563",
"(  c #465865",
")  c #4A5966",
"_  c #44556A",
"`  c #485668",
"'  c #45586B",
"]  c #4C5D6B",
"[  c #525E66",
"{  c #515F6B",
"}  c #5B5F69",
"|  c #425F72",
" . c #4B5E72",
".. c #4E606D",
"X. c #52616D",
"o. c #5B626C",
"O. c #4D6272",
"+. c #45657A",
"@. c #4A657A",
"#. c #536572",
"$. c #5B6674",
"%. c #566976",
"&. c #5C6B75",
"*. c #566A78",
"=. c #5C6D7A",
"-. c #5D717C",
";. c #62666D",
":. c #636B74",
">. c #656C77",
",. c #637077",
"<. c #63727C",
"1. c #6B747C",
"2. c #71777F",
"3. c #2B5B86",
"4. c #376886",
"5. c #2D6794",
"6. c #2D6995",
"7. c #306997",
"8. c #5E7381",
"9. c #627582",
"0. c #6D7581",
"q. c #647A85",
"w. c #6A7B85",
"e. c #677C88",
"r. c #697E89",
"t. c #747C84",
"y. c #787E87",
"u. c #757E8A",
"i. c #3D8CAA",
"p. c #5A8499",
"a. c #6C818D",
"s. c #738087",
"d. c #75838C",
"f. c #7B838C",
"g. c #7B898E",
"h. c #7D8691",
"j. c #778993",
"k. c #738A95",
"l. c #768994",
"z. c #7D8A93",
"x. c #5A97AA",
"c. c #5B9DB5",
"v. c #6798AA",
"b. c #56A1BD",
"n. c #65A8B9",
"m. c #55AAC8",
"M. c #808B93",
"N. c #888F96",
"B. c #838E99",
"V. c #83929A",
"C. c #8A949C",
"Z. c #90979F",
"A. c #91989F",
"S. c #8C96A0",
"D. c #8D9CA3",
"F. c #8C9DA9",
"G. c #939DA3",
"H. c #979FA6",
"J. c #8DA0A5",
"K. c #92A1A7",
"L. c #99A1A7",
"P. c #95A1A9",
"I. c #9BA5AB",
"U. c #9BA8AF",
"Y. c #9BA9B3",
"T. c #9DABB4",
"R. c #A3ADB4",
"E. c #A5B3BB",
"W. c #AAB6BD",
"Q. c #A9B8BF",
"!. c #B2BABD",
"~. c #A7B7C0",
"^. c #ABBAC1",
"/. c #B1BDC4",
"(. c #B1C0C7",
"). c #BAC2C5",
"_. c #BEC6C9",
"`. c #BFC8CB",
"'. c #C0C7CB",
"]. c #C1C9CC",
"[. c #C6CED1",
"{. c #C7D0D3",
"}. c #CAD3D6",
"|. c #CDD6D8",
" X c #D1DBDE",
".X c #D5DEE1",
"XX c #D7E1E3",
"oX c #D8E2E5",
"OX c #DCE5E8",
"+X c #E4EFF1",
"@X c #E6F1F4",
"#X c #E9F3F6",
"$X c #ECF6F9",
"%X c #EEF9FB",
"&X c #F1FCFE",
/* pixels */
"w.g.j.2...,.g.J.J.J.&.V.J.J.g.<.K.J.J.,.C.J.J.J.J.J.J.J.J.J.<.J.J.J.V.,.C.J.C.<.V.J.J.j.<.o.2.j.j.<.",
"d.X.B n 2 3 ! -.8.8...-.a.q.-...a.a.a.X.<.a.a.s.a.a.k.a.a.-...q.a.r.<...<.-.=.! -.<.-...3 3 n n X.a.",
"=.v v k , - w ! &...Q ] ....( Q ......Q X.o.#.X.%.#.#.......Q ......] Q ....] Q ..-.! 3 , , v v b ..",
"=.i e x - & & n <.9.=.q.%.=.<.=.q.a.q.,.q.#.#.w.s.a.2.%...1.-.<.r.r.<.*.q.q.<.&.-.-.n & & & x u k ..",
"=.n 3 > ;.K.A.M.W.W.C.R.E.E.E.E.W.E.E.A.R.R.R.Q.Q.Q.Q.E.R.E.C.E.^.Q.Y.C.E.^.E.C.E.E.g.G.K.;.- e v [ ",
"#.n 2 & L.&X%X].$X&X`.@X%X&X&X&X&X%X&X[.#X%X&X&X&X&X&X&X%X%X`.%X&X%X$X].%X&X%X`.$X$X[.%X&XK.& 2 b [ ",
"=.^ 3 > A.$X@X).+X#X).+X%X%X%X%X%X$X$X'.+X%X$X%X$X%X%X%X%X$X).#X%X%X@X_.$X%X#X).+X+X).@X%XG.# 3 ^ #.",
"q.( 3 , f.].'.A./._.E.S.t.1.d.h.z.V.K.M.K.A.C.g.M.M.z.C.A.K.g.K.V.B.z.$.0.t.G.W._.).L.)._.f.< 3 ^ =.",
"-.Q 3 - L.&X$X'.#X%X%XF.e % v W ( ..-...O.! ! k l n k ..Q ..Q -.X.) ^ 3 & e D.$X%X#X'.$X&XK.> w Q %.",
"a...! X.A.oX X!.$X%X%XF.e - e b V n k 3 k - - x q q z - - k 3 k B M n < - 3 F.$X&X#X/. XXXC.o.! X.=.",
"8.%.^ -.K.|.{.!.$X%X$Xz.j n { u.V.g.Q : U 3 x x.n.n.x.N 3 L 2 V l.V.d.Q n x V.#X&X#X!.{.}.G.,.^ $.,.",
"a.%...q.(.&X%XR.Y.E.J.@.| F { k.k.9.! x K ,.z.-.*.=.=.k.=.V e ! 8.a.l.G J O.] D.T.U.R.&X&X^.q.) #.=.",
"-.%...8.(.&X&Xd.u x v +.x.T | 8.8.=.) w 2 2 X.v k k l ..3 2 3 X.%.=.<.' T n.+.b h u g.&X&X^.9.) #.=.",
"%...Q -.U.XX.X1.; - e H R b.8.` O.e < 2 2 - n ,.( ! -.V - 2 2 < w  .' @.c.R m w - = 1..XoXU.-.^ ] ] ",
"X...V =.K.}.}.2.] #.E ..v.p./ ' ^ e q e - 2 w 2 2 3 , 2 < - l 2 i ^ ' ^ p.v.] n X.] y.}.}.K.=.V ` ` ",
"=.....-.(.&X%XK.-.B X.z.q.) ` ^ ^ y u u < = & & : = & & = - e z d _ ^ ^ ] e.j.] W <.G.&X&X^.8.( #.$.",
"-.O.) 9.^.&X&XK.8.w ) a.' k e b A 4.m u q ; * ; ; # # $ ; q u v R J k w v K q.^ e 9.P.%X&XQ.8.( X.%.",
"-.#.) 9./.&X%XF.-.w ) a.@.v : 6 A R F q * ; ; q $.4 ; ; u ; q N T A 6 : v O.q.Q 2 -.P.%X&XQ.-.)  .$.",
"%.) ( <./.&X%XJ.*.w B %.^ u < v F N q $ ; ; 4 4 q 4 4 4 q : ; q v N v 2 p V ..k 2 *.P.%X&XQ.-.^ / ] ",
"^ ^ B :.K.}.{.t.N 2 < w 2 - - 2 0 9 $ ; ; 4 4 4 4 4 5 y ; 4 9 * q q q - , 2 3 , < M s.}.{.G.&.B ^ / ",
"#...( -.R.oXoX1.- < K p.h < q & > $ ; a 9 4 q 6 s c a 6 4 r : * @ - & 3 < h p.N - ; 1.XXOXR.9.^ { { ",
"=.....-./.&X&Xg.q - x +.k , 1 & , * ; q 5 6 s c S D L 8 5 r 4 * * : & 2 < k +.k , w M.&X&X^.-.( ..X.",
"....O.-.Y.XX.Xs.x - n 1.<.E w < = ; <.$.5 8 C I Y Y I C s 5 : * * & , 2 E 1.1.n - p d.XXXXI.<.%.] / ",
"Q ..^ %.K.|.}.w.B - V Q # l W w = * h h 6 C I 3.5.6.3.P c s d 9 * = w Q l + W n - M d.}.|.K.%.) ] ^ ",
"#...( -.Q.&X&XM.h ; ^ W # W ^ w $ ; ; 4 8 C 3.7.m.m.6.Y S 8 ~ h ; = w ` ^ # E B : h B.&X&X~.=.^ #.O.",
"#.X.) =.^.&X&Xz.d ; B B = B ^ 1 $ $ 4 5 8 c 3.7.m.m.7.Y C 8 4 4 * # q / B = B n - d B.%X&X^.*.' { ] ",
"#...Q -.^.&X&Xg.t % b n - e p - $ $ 4 4 f c P 3.5.5.3.P f 8 4 4 * # , v i , W v = t z.&X&XQ.*.^ ` ' ",
"..( V %.^.&X&XM.e = h #.X.i = & @ $ 4 4 6 8 C P Y Y P D g a 4 $ = @ = = i X.%.l = t M.&X&XE.#.B ^ ^ ",
"M n n ] S.{.[.1.i = < m , # > # % $ 4 4 5 6 f f C C f  .G 4 4 4 $ = & - # , m 9 & e 1.{.{.C.] b b b ",
"~ ~ ^ X.U.OX.XM./ > z R = = 1 % % 1 $ 4 4 4 8 8 f f 8 5 4 4 r 1 ; = & 9 , * R d , / M.oXOXP.X./ B B ",
"^ G M ] ^.&X&XN.M = = > # % > 1 0 q q $ ; 4 ; 4 5 5 4 ; 9 q $ r w 9 < > = # > # = B C.&X&XE.' b B ~ ",
"B B h ~ G.|.}.t.b = i / b w > 0 q t d q * $ 4 4 4 $ 4 9 * $ 9 d t w 2 > w b / e = n y.|. XS.^ v M M ",
"k v v ^ G. X Xt.j # p ] H 0 = ; ; a t w , * * ; * * * ; ; : 9 q t 4 * ; w F _ t % M u..X.XG._ h j h ",
"B b h ^ W.&X&XM.u > i _ j d p ~ H D ; ; - < - * * - = ; < ; , < A L G h h m ~ t % d M.&X&XR.^ h b M ",
"B b h ^ E.&X&Xf.u w p _ M w h h ~ t = = @ * - = w w = - = # - - t G h h t v ~ t w u h.%X&XT.G h M M ",
"N v h ^ E.&X&X2.O # # 0 A A 9 p u > = = # = > < 3 w 1 , # # = & > d d 9 A D 1 @ # # t.%X&XR.G v h M ",
"b v p ^ G.XX X:.X X % q D i.x j B 1 > = % # W =./ ^ =.W # = = = 1 M p C i.U 9 # . . >..XXXG.~ d p j ",
"k p u B S.|.}.>.< 0 % r 4.F d ^ ' ^ W 1 ; 1 n , & # , b 1 , 1 W ~ ^ ~ g L 7.4 + 1 1 1.}.|.C.W t j u ",
"b v u ^ E.&X&XL.B.C.u.d a q w G M h w = y p ~ b B n M B e r = w b G ~ 1 r s e u.C.B.I.&X&XT.G h v M ",
"M v u K R.&X%X'.$X%X@X0.O O # 1 0 0 O O s o O 0 w w 0 o . 7 o O 9 9 , O o O <.$X&X&X].%X&XY.B p j M ",
"b v p W R.&X$X'.$X%X&Xy.+   + + % % % @ = + + % + + % + O > # % % % # o X O y.%X%X%X_.$X&XR.W p M j ",
"b p b ! L.$X@X'.+X$X#X0.O   % 1 w w h 1 # , , > # # = > > @ > u w e w + o O 0.@X@X+X).#X#XL./ h h j ",
"b h > > y.'.).A././.R.Z.t.t.y.y.g.h.M.:.0.f.y.y.y.y.y.y.u.y.:.f.h.M.y.;.t.t.A.R././.A.)._.t.% > j j ",
"h p + . A.&X#X'.#X%X'.#X&X&X&X&X&X&X&X].#X&X&X&X&X&X&X&X&X%X].$X%X%X$X].%X&X%X).$X$X].$X%XG.  # u j ",
"u 1 # . G.&X&X].%X&X'.#X&X&X&X&X&X&X&X'.@X&X&X&X&X&X&X&X&X%X`.%X&X%X$X].&X&X&X'.$X$X].&X&XG.. # , e ",
"u > # o o.G.N.M.Q.~.G.~.W.W.^./.~.~.^.G.Q.E.W.^.W.W.~.E.E.^.G.~.^.^.^.G.^.~.W.G.^.^.y.N.G.o.O # > i ",
"p # # = o     3 O. .{ ] ) ] { ] O.O.] { O.B ^ #.@.*.#.^ n X.{ X. . .{ { ]  .] { {  .w   . o % # # j ",
"i = = = o . # w M u w u u p t 0 u u u w u u u b W B M h h t 0 h p u u 0 p u u 9 w M w + . o > % % j ",
"v 3 = > O + w h v b u v M b h i b j h u h j j _ ~ G _ M b d u j b v M p j h h u j h h w + + , > 3 j ",
"1 0 0 1 & > 1 w w e , 0 w q 0 1 0 t t , 0 e w t e w w w w w > w w w 0 , w w w 1 w 0 w 0 > > 1 0 0 1 "
};
