/* XPM */
static char *exit[] = {
/* columns rows colors chars-per-pixel */
"50 48 155 2 ",
"   c #070708",
".  c #0D0D0E",
"X  c #0E0F11",
"o  c #121214",
"O  c #161619",
"+  c #17181A",
"@  c #191A1D",
"#  c #1D1E21",
"$  c #1F2023",
"%  c #212326",
"&  c #2D2D25",
"*  c #24262A",
"=  c #282729",
"-  c #27282D",
";  c #292A2E",
":  c #30312D",
">  c #2B2D32",
",  c #2E3035",
"<  c #2F3138",
"1  c #303236",
"2  c #3C3C32",
"3  c #33353A",
"4  c #36383E",
"5  c #3B3A3D",
"6  c #49413F",
"7  c #4D4D3C",
"8  c #373A40",
"9  c #3A3D43",
"0  c #3D4047",
"q  c #3F4148",
"w  c #444444",
"e  c #4B4C46",
"r  c #42454C",
"t  c #45484F",
"y  c #4B4B4B",
"u  c #494444",
"i  c #554E4D",
"p  c #51524D",
"a  c #585843",
"s  c #464951",
"d  c #4A4D54",
"f  c #4C4F58",
"g  c #4D5057",
"h  c #4E5159",
"j  c #545453",
"k  c #575956",
"l  c #52555D",
"z  c #56585F",
"x  c #5B5D5B",
"c  c #5C5453",
"v  c #65654A",
"b  c #68694F",
"n  c #79794A",
"m  c #545760",
"M  c #565962",
"N  c #5A5D66",
"B  c #5B5F68",
"V  c #625E60",
"C  c #5D6066",
"Z  c #5E616B",
"A  c #61646E",
"S  c #72736D",
"D  c #626671",
"F  c #656973",
"G  c #6A6D76",
"H  c #6A6E79",
"J  c #6D717B",
"K  c #777772",
"L  c #7B7C73",
"P  c #71757E",
"I  c #75787F",
"U  c #807F73",
"Y  c #7F817A",
"T  c #85844F",
"R  c #858550",
"E  c #8E8D55",
"W  c #908E52",
"Q  c #949355",
"!  c #999857",
"~  c #A8A75F",
"^  c #888779",
"/  c #A09E64",
"(  c #A19F68",
")  c #A1A060",
"_  c #AAA960",
"`  c #A2A16E",
"'  c #A4A477",
"]  c #BFBD71",
"[  c #C0BD69",
"{  c #DEDB77",
"}  c #DEDB7B",
"|  c #727681",
" . c #767983",
".. c #797D86",
"X. c #777C88",
"o. c #7A7E89",
"O. c #7E8087",
"+. c #7D818B",
"@. c #7F8490",
"#. c #82858E",
"$. c #88878B",
"%. c #8F8F88",
"&. c #838791",
"*. c #868993",
"=. c #898C95",
"-. c #8B8F98",
";. c #8D909A",
":. c #91959D",
">. c #95989F",
",. c #B3B28B",
"<. c #B6B597",
"1. c #969AA3",
"2. c #9A9DA6",
"3. c #9DA0A7",
"4. c #9DA1AA",
"5. c #A2A5AD",
"6. c #BFBFAC",
"7. c #B5B4A8",
"8. c #A6A9B1",
"9. c #AAADB5",
"0. c #ABAFB8",
"q. c #A2A7B2",
"w. c #ADB0B7",
"e. c #AEB1BA",
"r. c #B5B8BF",
"t. c #B5B7BC",
"y. c #C7C691",
"u. c #E0DD84",
"i. c #E2DF8D",
"p. c #E3E094",
"a. c #E4E29C",
"s. c #C4C3B9",
"d. c #E6E4A4",
"f. c #E8E6AD",
"g. c #EAE8B5",
"h. c #ECEABE",
"j. c #B6B9C1",
"k. c #BBBDC3",
"l. c #C4C6CC",
"z. c #C7C9CE",
"x. c #D1D0C0",
"c. c #CCCED2",
"v. c #D0D2D6",
"b. c #D2D4DA",
"n. c #DCDCD8",
"m. c #E3E1C4",
"M. c #EEEDC6",
"N. c #F0EFCD",
"B. c #E9E8D6",
"V. c #F2F1D5",
"C. c #F4F3DB",
"Z. c #DFE0E3",
"A. c #F6F5E3",
"S. c #F9F8EB",
"D. c None",
/* pixels */
"D.D.D.D.D.D.D.D.D.D.D.D.D.D.D.D.D.D.D.l #.#.-.2.5.:.&.-.A D.D.D.D.D.D.D.D.D.D.D.D.D.D.D.D.D.D.D.D.D.",
"D.D.D.D.D.D.D.D.D.D.D.D.D.D.D.D.D.D.D.t | J o.2.2.*.+...z D.D.D.D.D.D.D.D.D.D.D.D.D.D.D.D.D.D.D.D.D.",
"D.D.D.D.D.D.D.D.D.D.D.D.D.D.D.D.l F H q D 0 M -.5.P g h f M J Z D.D.D.D.D.D.D.D.D.D.D.D.D.D.D.D.D.D.",
"D.D.D.D.D.D.D.D.D.D.D.D.D.D.Z #.H +.8.M J h 4 l G 3 h A h -.8.H &.J D.D.D.D.D.D.D.D.D.D.D.D.D.D.D.D.",
"D.D.D.D.D.D.D.D.D.D.D.D.M #.5.z.5.#.t.Z ..m l t Z r B J l 8.9.#.c.e.1.H D.D.D.D.D.D.D.D.D.D.D.D.D.D.",
"D.D.D.D.D.D.D.D.9 D.l  .1.k.v.Z.9.l d > *.Z z M B M M =.9 s 4 P b.n.l.9.-.A D.9 D.D.D.D.D.D.D.D.D.D.",
"D.D.D.| | H &.N 5.F z 4.j.z.2.B 1 # + # 8 > 4 d f 9 1 3 > @ O % s +.k.l.8.o.d 5.#.D.D.F z B D.D.D.D.",
"D.D.D.| | H -.#.2.J Z G ;.N 1 @ # % @ o ; S K K K K K e + O $ % @ % d I *.l  .| l.&.k...A F d D.D.D.",
"D.D.D.F H D -.@.D N  .f @ @ O $ @ O V s.A.S.S.S.S.S.S.S.n.%.& O $ @ O $ -  .F H ;.2.j.F F D d D.D.D.",
"D.D.D.G H A X.X.o.N F N   o o 1 K B.A.A.A.S.A.A.S.A.S.A.A.A.B.7.p o O X > | Z A *.e.z.G D N q D.D.D.",
"D.D.D.Z D N F h *.Z D o o . ^ A.A.A.A.C.A.A.A.A.A.C.A.A.A.C.A.A.A.x.@ . X 4  . .t.;.;...Z h q D.D.D.",
"D.D.D.D A N N ; F H o X @ 6.C.V.C.V.C.C.C.C.C.C.C.C.C.C.C.C.C.C.C.C.N.^ . o , 8.8.g G #.M h q D.D.D.",
"D.D.D.D D Z F * 8 o.$ 2 m.V.V.V.V.V.V.V.V.V.V.V.V.V.V.V.V.V.V.V.V.V.V.V.^ . N 5.o.4 P O.M h q D.D.D.",
"D.D.D.B Z N  .3 $ M x m.N.N.N.N.N.N.N.N.N.N.N.N.N.N.N.N.N.N.N.N.N.N.N.N.N.^ $.+.d 0 #. .M l 9 D.D.D.",
"D.D.q N D N @.f h d Y M.M.M.M.M.M.M.M.M.M.M.M.M.M.M.M.M.M.M.M.M.M.M.M.M.M.<.*.r 0 N 3. .m m 9 D.D.D.",
"D.D.q N Z m J Z 4 h L h.M.h.h.h.h.h.h.h.h.h.h.h.h.h.h.h.h.h.h.h.h.h.h.h.h.<.#.P ..A 8.I h h , D.D.D.",
"D.D.s Z Z m Z s ; ; L g.g.g.g.g.g.g.g.g.g.g.g.g.g.g.g.g.g.g.g.g.g.g.g.g.g.,.&.s 4 -. .G s s < D.D.D.",
"P >.P Z Z m J t g = S f.f.f.f.f.f.f.f.f.f.f.f.f.f.f.f.f.f.f.f.f.f.f.f.f.f.,.o.9 h M  .J 0 0 z *.D.D.",
"d J Z N B h G q z % 3 y.d.d.d.d.d.d.d.d.d.d.d.d.d.d.d.d.d.d.d.d.d.d.d.d.d.' J 4 C A &.G 3 1 r N D.D.",
"D.Z h h h h ..C t % @ ' a.a.a.a.a.a.a.a.a.a.a.a.a.a.a.a.a.a.a.a.a.a.a.a.a.p d 3 t A =.F - - 4 > D.D.",
"D.Z 0 N r @ @ Z * % $ ` p.p.p.p.p.p.p.p.p.p.p.p.p.p.p.p.p.p.p.p.p.p.p.p.p.j d 1 g =.>.z 9 4 1 3 D.D.",
"D.A 9 N l $ + d l , % / i.i.i.i.i.i.i.i.i.i.i.i.i.i.i.i.i.i.i.i.i.i.i.i.i.y s 4 w #.A B 0 *.;.H D.D.",
"D.g 0 h s , $ * 3 3 % / u.u.u.u.u.u.u.u.u.u.u.u.u.u.u.u.u.u.u.u.u.u.u.u.u.w t f h :.b.#.3 N ;.;.Z D.",
"M #.5.t.3.l % * 9 3 , ] u.u.u.u.u.u.u.u.u.u.u.u.u.u.u.u.u.u.u.u.u.u.u.u.u.e t f t 9.e.j.o.Z ..J N 9 ",
"0 h G I Z 4 > , t * v } u.} u.} } u.} } u.} } } } u.} } } u.} } } u.} u.} / f d *.q.X.l s m | *.+.l ",
"D.D.N | l > 3 4 q * b } } { } } } } } } } } } } } } } } } } } } } } { } { _ M 3 I &.l $.s q H | ..N ",
"D.D.#.e.1.t 4 4 t - v { { { } { { { { { } { { { { { } { } { } } { { { { { _ N 8 :.H 8 t | A s f N s ",
"D.D.+.k.2.9 r 9 q , v { { { { { { { { { { { { { { { { { { { { { { { { { { _ m r 5.H A A 8 $ 9 f s , ",
"D.D.o.4.;.8 t 9 8 - v { { { { { { { { { { { { { { { { { { { { { { { { { { _ N d V M B t s f 8 s t 8 ",
"D.D.| :.| 8 q s 9 % v { { { { { { { { { { { { { { { { { { { { { { { { { { _ M 4 i c 5 < s < 9 8 3 3 ",
"D.D.| 1.X.h D Z > # a { { { { { { { { { { { { { { { { { { { { { { { { { { _ M 8 c u w t 9 < q > * * ",
"D.D.| q.| D  .m # $ a { { { { { { { { { { { { { { { { { { { { { { { { { { ~ l > = 6 5 # # ; t * $ $ ",
"D.D.H 1...&.@.3 > # * ! { { { { { { { { { { { { { { { { { { { { { { { { } E h 3 , 1 q # o % 0 @ @ D.",
"D.D.N D X.@.F > * * # Q { { { { { { { { { { { { { { { { { { { { { { { { } k s $ t > , * $ 3 O X D.D.",
"D.D.4 t t t 8 > @ > @ Q { { { { { { { { { { { { { { { { { { { { { { { { { S f s * q F M , + + D.D.D.",
"D.D.> 8 8 , q 3 * ; O Q { { { { { { { { { { { { { { { { { { { { { { { { { x q q q s M s # $ $ D.D.D.",
"D.d d 3 4 > d - # # O T { { { { { { { { { { { { { { { { { { { { { { { { { j 9 q 8 4 Z r * ; t D.D.D.",
"D.3 1 , 9 > 4 @ * # & { { { { { { { { { { { { { { { { { { { { { { { { { { k s ; 3 0 l d ; , ; D.D.D.",
"A  .Z N d s > * O ; 7 { { { { { { { { { { { { { { { { { { { { { { { { { { R q - > 1 r d 3 , N  .D.D.",
" .2.| N N F 9 $ # 8 e { { { { { { { { { { { { { { { { { { { { { { { { { { Q h N $ > r D Z Z G 1.D.D.",
"F +.m > 3 4 f 9 8 s 7 { { { { { { { { { { { { { { { { { { { { { { { { { { E F l d q M g , ; N &.D.D.",
"B o.f ; * 1 l f m 8 2 D.D.D.D.D.D.D.D.D.D.D.D.D.D.D.D.D.D.D.D.D.D.D.D.D.D.R q F | h H 4 @ # Z +.D.D.",
"h H t * * < 9 9 3 ; & D.D.D.D.D.D.D.D.D.D.D.D.D.D.D.D.D.D.D.D.D.D.D.D.D.D.n 4 d h P J 9 # $ m F D.D.",
"8 f 1 % % * 9 , > @ D.D.D.D.D.D.D.D.D.D.D.D.D.D.D.D.D.D.D.D.D.D.D.D.D.D.D.D.> 3 t t s 3 @ @ q r D.D.",
"9 f < # @ - 8 * O D.D.D.D.D.D.D.D.D.D.D.D.D.D.D.D.D.D.D.D.D.D.D.D.D.D.D.D.D.& > > q h 3 O @ 9 t D.D.",
"D.D.O # @ # ; # D.D.D.D.D.D.D.D.D.D.D.D.D.D.D.D.D.D.D.D.D.D.D.D.D.D.D.D.D.D.D.D.$ > f > @ @ D.D.D.D.",
"D.D.D.+ @ O + D.D.D.D.D.D.D.D.D.D.D.D.D.D.D.D.D.D.D.D.D.D.D.D.D.D.D.D.D.D.D.D.D.D.$ > > % % D.D.D.D.",
"D.D.D.O O o D.D.D.D.D.D.D.D.D.D.D.D.D.D.D.D.D.D.D.D.D.D.D.D.D.D.D.D.D.D.D.D.D.D.D.D.@ % % # D.D.D.D."
};
