/* XPM */
static char *coin_0[] = {
/* columns rows colors chars-per-pixel */
"25 25 39 1 ",
"  c #14182E",
". c #211F2E",
"X c #3C2C2D",
"o c #3E302F",
"O c #252734",
"+ c #55382D",
"@ c #433A32",
"# c #45423C",
"$ c #64402D",
"% c #6D462D",
"& c #705735",
"* c #7A5F36",
"= c #735F3A",
"- c #7C643A",
"; c #464640",
": c #65624B",
"> c #797452",
", c #8C542C",
"< c #CF752B",
"1 c #D17A2D",
"2 c #C58434",
"3 c #D88731",
"4 c #DD9034",
"5 c #E39B38",
"6 c #E49E39",
"7 c #E5A03A",
"8 c #EBAC3E",
"9 c #ABA265",
"0 c #DBBB5D",
"q c #EEB240",
"w c #F0B541",
"e c #F1B844",
"r c #F2BD4A",
"t c #F5C959",
"y c #F6CC5C",
"u c #F9D667",
"i c #FBDE70",
"p c #FFEE83",
"a c None",
/* pixels */
"aaaaaaaaa       aaaaaaaaa",
"aaaaaaaaa;;;;;;;aaaaaaaaa",
"aaaaa   OpppppppO   aaaaa",
"aaaaa:>=-uuuuuuu-=>:aaaaa",
"aaaa 9prwwwwwwwwwrp9 aaaa",
"aa :90tewwwwwwwwwet09: aa",
"aa >ptwwwwwwwwwwwwwtp> aa",
"aa =rewwwwwwwwwwwwwer= aa",
"aaO-wwwwwwwwwwwwwwwww-Oaa",
" ;puwwwwwwwwwwwwwwwwwup; ",
" #iywwwwwwwwwwwwwwwwwyi# ",
" @wwwwwwwwwwwwwwwwwwwww@ ",
" @wwwwwwwwwwwwwwwwwwwww@ ",
" @wwwwwwwwwwwwwwwwwwwww@ ",
" o35wwwwwwwwwwwwwwwww53o ",
" X<4wwwwwwwwwwwwwwwww4<X ",
"aa.*wwwwwwwwwwwwwwwww*.aa",
"aa &8qwwwwwwwwwwwwwq8& aa",
"aa $<6wwwwwwwwwwwww6<$ aa",
"aa +,2667wwwwwww7662,+ aa",
"aaaa ,<<1wwwwwww1<<, aaaa",
"aaaaa+$$%4444444%$$+aaaaa",
"aaaaa   .<<<<<<<.   aaaaa",
"aaaaaaaaaXXXXXXXaaaaaaaaa",
"aaaaaaaaa       aaaaaaaaa"
};
